<?xml version="1.0" encoding="UTF-8" standalone="no"?>
<svg
   xmlns:dc="http://purl.org/dc/elements/1.1/"
   xmlns:cc="http://creativecommons.org/ns#"
   xmlns:rdf="http://www.w3.org/1999/02/22-rdf-syntax-ns#"
   xmlns:svg="http://www.w3.org/2000/svg"
   xmlns="http://www.w3.org/2000/svg"
   xmlns:sodipodi="http://sodipodi.sourceforge.net/DTD/sodipodi-0.dtd"
   xmlns:inkscape="http://www.inkscape.org/namespaces/inkscape"
   width="210mm"
   height="297mm"
   viewBox="0 0 210 297"
   version="1.1"
   id="svg8"
   inkscape:version="1.0.2 (e86c870879, 2021-01-15, custom)"
   sodipodi:docname="LOGO.svg">
  <defs
     id="defs2" />
  <sodipodi:namedview
     id="base"
     pagecolor="#ffffff"
     bordercolor="#666666"
     borderopacity="1.0"
     inkscape:pageopacity="0.0"
     inkscape:pageshadow="2"
     inkscape:zoom="1.0079365"
     inkscape:cx="396.85039"
     inkscape:cy="574.84299"
     inkscape:document-units="mm"
     inkscape:current-layer="svg8"
     inkscape:document-rotation="0"
     showgrid="false"
     inkscape:window-width="1366"
     inkscape:window-height="745"
     inkscape:window-x="-8"
     inkscape:window-y="-8"
     inkscape:window-maximized="1" />
  <metadata
     id="metadata5">
    <rdf:RDF>
      <cc:Work
         rdf:about="">
        <dc:format>image/svg+xml</dc:format>
        <dc:type
           rdf:resource="http://purl.org/dc/dcmitype/StillImage" />
        <dc:title></dc:title>
      </cc:Work>
    </rdf:RDF>
  </metadata>
  <g
     inkscape:label="Logo"
     id="layer1"
     transform="translate(-0.29914265,-8.0788343)"
     sodipodi:insensitive="true">
    <path
       style="fill:#000000;stroke-width:0.352778"
       d="m 65.030759,175.01725 c -0.424884,-0.64846 -0.462392,-0.91826 -0.14461,-1.0402 0.23599,-0.0906 2.547681,-0.1173 5.13709,-0.0594 5.401665,0.12074 6.768302,-0.28799 6.959515,-2.08144 0.05792,-0.54324 0.246971,-1.17423 0.42012,-1.40222 0.173148,-0.22799 0.526413,-1.36703 0.785032,-2.53119 0.25862,-1.16417 0.615801,-2.40841 0.793737,-2.76497 0.177936,-0.35657 0.399195,-1.07095 0.491686,-1.5875 0.09249,-0.51656 0.317578,-0.99212 0.500194,-1.05679 0.182616,-0.0647 0.332029,-0.73 0.332029,-1.47849 0,-0.74849 0.15875,-1.459 0.352778,-1.57892 0.194028,-0.11992 0.352778,-0.57519 0.352778,-1.01173 0,-0.43653 0.233076,-1.10185 0.517947,-1.47848 0.284871,-0.37664 0.522996,-1.20073 0.529167,-1.83132 0.0062,-0.63059 0.169969,-1.14653 0.363997,-1.14653 0.194028,0 0.352778,-0.52528 0.352778,-1.16729 0,-0.64201 0.233076,-1.47545 0.517947,-1.85208 0.284871,-0.37664 0.522996,-1.11198 0.529167,-1.63411 0.0062,-0.52213 0.169969,-1.04743 0.363997,-1.16735 0.194028,-0.11991 0.352778,-0.67554 0.352778,-1.23472 0,-0.55918 0.15875,-1.11481 0.352777,-1.23472 0.194028,-0.11992 0.358404,-0.64523 0.365279,-1.16735 0.0069,-0.52213 0.239375,-1.34619 0.516666,-1.83126 0.277291,-0.48507 0.50979,-1.23914 0.516666,-1.6757 0.0069,-0.43656 0.171251,-0.79375 0.365278,-0.79375 0.194028,0 0.352778,-0.42529 0.352778,-0.94509 0,-1.07907 0.546862,-3.00097 1.270014,-4.46336 0.271632,-0.5493 0.493875,-1.43036 0.493875,-1.95792 0,-0.52755 0.154206,-1.11339 0.342685,-1.30187 0.320513,-0.32051 0.629271,-1.47155 0.689434,-2.5702 0.01443,-0.26329 0.239553,-0.39685 0.500306,-0.29679 0.344053,0.13203 0.427118,-0.0638 0.302849,-0.71385 -0.125423,-0.65612 -0.0399,-0.85204 0.319659,-0.73232 0.269995,0.0899 0.508776,0.50463 0.530623,0.92163 0.02184,0.41699 0.236573,0.99536 0.477168,1.28525 0.253569,0.30554 0.385071,1.18558 0.312843,2.0937 -0.07289,0.91653 0.02187,1.54218 0.228392,1.50774 0.369214,-0.0616 0.364956,2.14519 -0.01009,5.2328 -0.191679,1.57796 -0.09666,1.94052 0.901407,3.43959 0.68085,1.02261 1.377696,1.67569 1.787983,1.67569 0.369772,0 0.67231,0.15875 0.67231,0.35278 0,0.56976 3.807535,0.41689 4.733872,-0.19007 0.45567,-0.29857 0.96602,-0.497 1.13412,-0.44097 0.16809,0.056 0.33865,-0.0211 0.37903,-0.17145 0.0404,-0.15032 0.30409,-0.70594 0.58604,-1.23472 1.07698,-2.01978 1.35647,-3.15949 0.95759,-3.90481 -0.48565,-0.90745 -0.49895,-5.17532 -0.0189,-6.07226 0.19987,-0.37346 0.38077,-1.27583 0.40201,-2.00528 0.0475,-1.63117 0.49258,-2.561 1.22588,-2.561 0.44534,0 0.51213,0.26206 0.33718,1.32292 -0.11999,0.7276 -0.31576,2.15635 -0.43505,3.175 -0.11929,1.01865 -0.35599,1.85208 -0.52599,1.85208 -0.4292,0 -0.38994,2.37784 0.0437,2.64584 0.19402,0.11991 0.35277,1.14615 0.35277,2.28054 1e-5,3.6773 -2.42156,6.71529 -5.352733,6.71529 -0.719617,0 -1.3973,0.14385 -1.505959,0.31966 -0.108659,0.17581 -0.475213,0.27797 -0.814571,0.22702 -0.339355,-0.051 -0.420338,-0.0248 -0.179962,0.0582 0.336197,0.11606 0.315845,0.38525 -0.08819,1.16657 -0.288883,0.55864 -0.52524,1.72859 -0.52524,2.5999 0,0.87131 -0.15875,1.68231 -0.352778,1.80223 -0.194028,0.11992 -0.352778,0.83333 -0.352778,1.58536 0,0.75202 -0.181769,1.81422 -0.403934,2.36043 -0.392391,0.96473 -0.56333,1.79932 -1.297806,6.33644 -0.193058,1.19259 -0.524143,2.49184 -0.73575,2.88723 -0.211603,0.39538 -0.384732,1.33257 -0.384732,2.08263 0,0.75006 -0.152139,1.51588 -0.338088,1.70183 -0.18595,0.18595 -0.225263,0.52064 -0.08737,0.74376 0.188499,0.305 0.662132,0.30121 1.908496,-0.0152 0.911775,-0.23151 1.771301,-0.53445 1.910055,-0.6732 0.138751,-0.13877 0.543317,-0.25229 0.899037,-0.25229 0.355716,0 0.646758,-0.15875 0.646758,-0.35278 0,-0.19403 0.253319,-0.35278 0.562931,-0.35278 0.309612,0 0.9843,-0.21896 1.499304,-0.48657 0.97216,-0.50515 5.28199,-2.54298 8.34471,-3.94565 0.97014,-0.44431 2.61197,-1.21632 3.64853,-1.71558 1.03655,-0.49927 2.17812,-0.90776 2.53682,-0.90776 0.35869,0 0.75029,-0.15875 0.8702,-0.35277 0.11992,-0.19403 0.64523,-0.35783 1.16735,-0.364 0.52213,-0.006 1.25747,-0.2443 1.63411,-0.52917 0.37663,-0.28487 1.0592,-0.51794 1.51682,-0.51794 0.45762,0 1.3166,-0.25058 1.90883,-0.55684 0.96382,-0.49841 1.05067,-0.67422 0.82775,-1.67569 -0.13697,-0.61538 -0.32358,-2.42855 -0.41468,-4.02928 -0.14127,-2.48243 -0.084,-2.91042 0.38946,-2.91042 0.40696,0 0.55509,0.3556 0.55509,1.33262 0,1.52925 0.84974,2.96099 1.70746,2.87689 1.15454,-0.11321 1.36934,0.0437 2.01254,1.47006 0.72877,1.61612 1.54676,2.07243 3.34815,1.86772 1.85644,-0.21097 2.10407,-0.38485 2.10407,-1.4775 0,-1.15324 -1.27053,-2.54201 -2.32559,-2.54201 -0.74283,0 -1.44259,-0.68707 -2.21128,-2.17119 -0.43552,-0.84087 -0.39472,-1.05198 0.44097,-2.28182 1.04458,-1.53723 1.13957,-2.62538 0.41859,-4.79508 -0.7977,-2.40056 -0.83449,-3.59526 -0.11505,-3.73581 0.42355,-0.0827 0.61736,0.10247 0.61736,0.58999 0,0.39083 0.15875,0.80872 0.35278,0.92863 0.19402,0.11992 0.35277,0.76429 0.35277,1.43194 0,0.66764 0.15875,1.2139 0.35278,1.2139 0.19403,0 0.35199,0.27781 0.35103,0.61736 -0.002,0.65958 0.94102,3.74174 1.45546,4.75771 0.1706,0.33692 0.31523,1.05129 0.3214,1.5875 0.006,0.53621 0.2443,1.28308 0.52916,1.65971 0.28488,0.37664 0.51795,0.97753 0.51795,1.33533 0,0.67485 0.94908,2.37258 1.57935,2.82518 0.22079,0.15854 0.16687,0.26128 -0.13884,0.26458 -0.27487,0.003 -0.39777,0.1074 -0.27311,0.23206 0.12466,0.12467 0.42894,0.0666 0.67616,-0.12902 0.59619,-0.47177 5.85793,-0.29837 6.36609,0.20979 0.21897,0.21897 1.12838,0.39813 2.02091,0.39813 1.64381,0 2.46944,0.44647 2.46944,1.33538 0,0.52418 0.176,0.53001 -8.71451,-0.28844 -4.99818,-0.46013 -14.49599,0.22044 -15.43313,1.10586 -0.18432,0.17415 -0.81932,0.32169 -1.41111,0.32786 -0.59178,0.006 -1.38413,0.2443 -1.76076,0.52917 -0.37663,0.28487 -1.04195,0.51795 -1.47848,0.51795 -0.43654,0 -0.89182,0.15875 -1.01173,0.35278 -0.11992,0.19402 -0.56585,0.35782 -0.99096,0.36399 -0.42511,0.006 -1.08109,0.2443 -1.45772,0.52917 -0.37663,0.28487 -0.97194,0.51795 -1.32291,0.51795 -0.35098,0 -0.63813,0.15875 -0.63813,0.35277 0,0.19403 -0.38365,0.35278 -0.85255,0.35278 -0.4689,0 -0.90546,0.15416 -0.97014,0.34258 -0.0647,0.18842 -0.48784,0.39861 -0.94035,0.46709 -0.45252,0.0685 -0.96362,0.35089 -1.13577,0.62757 -0.25605,0.41152 -0.44246,0.42281 -1.02453,0.0621 -0.39135,-0.24254 -0.9915,-0.43091 -1.33368,-0.41861 -0.47089,0.0169 -0.42366,0.10196 0.19426,0.34979 0.91261,0.36602 0.73212,1.03896 -0.27866,1.03896 -0.36044,0 -0.70826,0.11906 -0.77294,0.26458 -0.19491,0.43856 -2.41983,1.49931 -3.14479,1.49931 -0.37233,0 -0.67697,0.15875 -0.67697,0.35277 0,0.19403 -0.30616,0.35278 -0.68035,0.35278 -0.374198,0 -0.918481,0.23813 -1.209523,0.52917 -0.291041,0.29104 -0.848638,0.52916 -1.2391,0.52916 -0.390465,0 -0.808048,0.15875 -0.927964,0.35278 -0.119917,0.19403 -0.565849,0.35783 -0.99096,0.364 -0.425112,0.006 -1.081084,0.2443 -1.457717,0.52916 -0.376633,0.28488 -1.04195,0.51795 -1.478485,0.51795 -0.436534,0 -0.891811,0.15875 -1.011727,0.35278 -0.119917,0.19403 -0.615972,0.35278 -1.102346,0.35278 -0.486375,0 -1.196168,0.1669 -1.577319,0.37088 -0.381152,0.20399 -1.175668,0.43197 -1.765588,0.50663 -0.58992,0.0747 -1.25982,0.28832 -1.488665,0.47479 -0.228846,0.18648 -1.209833,0.42489 -2.179972,0.52979 -0.970139,0.10491 -3.351389,0.45114 -5.291667,0.7694 -1.940278,0.31826 -5.605215,0.65744 -8.144305,0.75373 -4.611412,0.17488 -4.617163,0.1741 -5.19021,-0.70047 z m 15.179249,-1.50678 c -0.117225,-0.11722 -0.421496,-0.12975 -0.676157,-0.0278 -0.281423,0.11261 -0.19783,0.19621 0.213136,0.21313 0.371887,0.0153 0.580246,-0.0681 0.463021,-0.18528 z m 9.352014,-3.07204 c 0.482208,-0.17092 0.544343,-0.3899 0.290491,-1.02376 -0.663335,-1.65632 -1.264814,-2.7412 -1.521266,-2.74386 -0.145521,-10e-4 -0.264583,-0.30703 -0.264583,-0.67891 0,-0.37189 -0.198438,-0.74729 -0.440973,-0.83422 -0.332335,-0.11913 -0.291083,-0.40883 0.16745,-1.17593 0.334631,-0.55982 0.754913,-0.9836 0.933958,-0.94173 0.179045,0.0419 0.243928,-0.23594 0.144184,-0.61736 -0.100344,-0.38371 -0.0054,-0.69349 0.21257,-0.69349 0.216658,0 0.393922,-0.3175 0.393922,-0.70556 0,-0.60895 0.235186,-0.70556 1.717731,-0.70556 1.710874,0 1.718603,-0.005 1.936394,-1.32291 0.408309,-2.47027 0.374992,-2.53631 -1.184681,-2.34831 -1.108272,0.13359 -1.411111,0.0537 -1.411111,-0.3724 0,-0.29837 -0.15875,-0.54249 -0.352778,-0.54249 -0.194027,0 -0.352777,-0.20127 -0.352777,-0.44727 0,-0.246 -0.396875,-1.03133 -0.881945,-1.74517 -0.979699,-1.44176 -1.136992,-2.21425 -0.392705,-1.92864 0.341006,0.13086 0.436428,-0.0142 0.314935,-0.47878 -0.09586,-0.36659 0.08086,-0.92167 0.392709,-1.23353 0.311852,-0.31185 0.567006,-0.77435 0.567006,-1.02777 0,-0.93361 1.082382,-1.37461 3.165154,-1.2896 1.639337,0.0669 2.134478,-0.04 2.402371,-0.5187 0.508,-0.90775 0.167241,-1.66195 -1.162604,-2.57317 -0.659896,-0.45217 -1.618605,-1.37119 -2.130464,-2.04228 -0.873559,-1.14529 -0.926021,-1.42988 -0.855158,-4.63914 0.09862,-4.46627 0.106433,-4.41242 -0.715003,-4.92542 -0.388747,-0.24277 -0.673347,-0.32065 -0.632443,-0.17305 0.174124,0.62831 -0.46549,3.28335 -0.748795,3.10826 -0.170787,-0.10555 -0.395588,0.48229 -0.499558,1.30632 -0.319465,2.53187 -0.669177,3.95755 -1.02748,4.18872 -0.215554,0.13906 -0.173478,0.68879 0.113454,1.48228 0.401962,1.11161 0.376093,1.40975 -0.218038,2.51298 -0.370757,0.68846 -0.796755,1.25174 -0.94666,1.25174 -0.149905,0 -0.272554,0.24946 -0.272554,0.55437 0,0.3049 -0.205785,0.76014 -0.4573,1.01166 -0.251514,0.25151 -0.658165,1.15299 -0.90367,2.00327 -0.245504,0.85029 -0.568965,1.94919 -0.718801,2.442 -0.239274,0.78696 0.05742,1.86333 0.676808,2.45537 0.541234,0.51733 1.402963,2.17037 1.402963,2.69127 0,1.0256 -1.181242,3.33427 -1.619874,3.16595 -0.26895,-0.1032 -0.350545,0.0939 -0.229888,0.55528 0.225283,0.86148 -0.419787,1.33583 -1.826627,1.34321 -1.418052,0.007 -2.320834,0.92278 -2.320834,2.35313 0,0.87709 0.158496,1.18785 0.617361,1.21044 0.339549,0.0167 1.159826,0.0564 1.822839,0.0882 1.052575,0.0505 1.334621,0.28154 2.223626,1.82169 0.559981,0.97014 1.105261,2.03278 1.211733,2.36143 0.238261,0.73544 1.523038,0.98986 2.23833,0.44325 0.291042,-0.22241 0.805205,-0.50222 1.142581,-0.6218 z m -5.134927,-1.71985 c -0.112616,-0.28143 -0.196209,-0.19784 -0.213136,0.21313 -0.01532,0.37189 0.06806,0.58025 0.185286,0.46302 0.117224,-0.11722 0.129758,-0.4215 0.02785,-0.67615 z m 6.702777,0 c -0.112614,-0.28143 -0.196208,-0.19784 -0.213134,0.21313 -0.01531,0.37189 0.06806,0.58025 0.185286,0.46302 0.117224,-0.11722 0.129755,-0.4215 0.02783,-0.67615 z m 20.925678,-6.28386 c 0,-0.19403 -0.15875,-0.35278 -0.35277,-0.35278 -0.19403,0 -0.35278,0.15875 -0.35278,0.35278 0,0.19403 0.15875,0.35278 0.35278,0.35278 0.19402,0 0.35277,-0.15875 0.35277,-0.35278 z m -28.694138,-2.20486 c -0.09786,-0.24253 -0.177936,-0.0441 -0.177936,0.44097 0,0.48507 0.08007,0.68351 0.177936,0.44097 0.09786,-0.24253 0.09786,-0.63941 0,-0.88194 z m 12.113585,-11.00348 c 0,-0.0856 -0.15875,-0.25369 -0.352777,-0.3736 -0.194028,-0.11992 -0.352778,-0.0499 -0.352778,0.15556 0,0.20548 0.15875,0.3736 0.352778,0.3736 0.194027,0 0.352777,-0.07 0.352777,-0.15556 z m 34.783893,-1.46721 c -0.12555,-0.32718 -0.30765,-0.5155 -0.40467,-0.41849 -0.097,0.097 -0.0737,0.44408 0.0519,0.77126 0.12555,0.32718 0.30765,0.5155 0.40467,0.41849 0.097,-0.097 0.0737,-0.44408 -0.0519,-0.77126 z M 91.122524,130.24375 c -0.09786,-0.24254 -0.177938,-0.0441 -0.177938,0.44097 0,0.48507 0.08007,0.68351 0.177938,0.44097 0.09786,-0.24253 0.09786,-0.63941 0,-0.88194 z m 19.290986,18.52083 c 0.0899,-0.14552 -0.73415,-0.2669 -1.83126,-0.26973 l -1.99475,-0.005 -0.0416,-2.22865 c -0.0297,-1.59021 0.0966,-2.28171 0.44097,-2.41385 0.26543,-0.10186 0.4826,-0.37367 0.4826,-0.60403 0,-0.23036 0.59532,-1.0581 1.32292,-1.83943 0.7276,-0.78133 1.98346,-2.28243 2.79078,-3.33578 0.80733,-1.05335 1.84084,-2.31206 2.29669,-2.79713 0.45585,-0.48507 1.37871,-1.59632 2.05079,-2.46945 0.67209,-0.87312 1.31385,-1.66687 1.42613,-1.76388 0.68709,-0.59365 2.10714,-2.80342 2.10714,-3.27897 0,-0.31159 0.19844,-0.69348 0.44097,-0.84864 0.24253,-0.15517 0.44097,-0.52024 0.44097,-0.81128 0,-0.29104 0.3175,-0.5493 0.70556,-0.57391 0.38805,-0.0246 1.1818,-0.0882 1.76389,-0.14139 2.27227,-0.20752 2.64583,-0.0597 2.64583,1.04725 0,0.57064 -0.15875,1.13563 -0.35278,1.25555 -0.70041,0.43287 -0.36061,1.854 0.59265,2.4786 0.81126,0.53155 1.46206,0.58785 4.58611,0.3967 l 3.64069,-0.22275 v 1.73971 c 0,0.95684 -0.15875,1.83782 -0.35278,1.95774 -0.19403,0.11992 -0.35278,0.51205 -0.35278,0.8714 0,1.1626 -1.98207,2.47999 -3.73123,2.47999 -1.2019,0 -1.56044,-0.13104 -1.56044,-0.57031 0,-0.39307 0.21525,-0.51403 0.69259,-0.3892 0.38092,0.0996 0.87661,-0.0406 1.10153,-0.31163 0.22492,-0.27101 0.63897,-0.49275 0.92011,-0.49275 0.83246,0 1.38708,-0.79658 1.63527,-2.34871 0.18376,-1.14916 0.11536,-1.50289 -0.32316,-1.67116 -1.0138,-0.38904 -2.62774,-0.22153 -3.52403,0.36575 -0.75803,0.49667 -1.02016,0.51283 -1.83967,0.11336 -0.52563,-0.25621 -1.03507,-0.47841 -1.13208,-0.49377 -0.097,-0.0154 -0.76507,-0.30881 -1.48457,-0.65209 -1.35063,-0.64442 -1.394,-0.849 -0.55323,-2.60972 0.54668,-1.14484 0.10782,-1.87588 -1.12613,-1.87588 -0.81916,0 -1.0694,0.15841 -1.0694,0.67696 0,0.88286 -1.0665,2.88805 -1.85209,3.48222 -0.33955,0.25682 -0.61736,0.63743 -0.61736,0.84581 0,0.34151 -1.73937,2.48106 -6.08358,7.48322 -0.82563,0.95067 -1.75668,2.1413 -2.069,2.64583 -0.31233,0.50454 -1.14577,1.52396 -1.85209,2.26538 -1.25281,1.31507 -1.5058,2.07378 -1.07008,3.20922 0.28069,0.73149 2.11135,0.73646 2.39146,0.006 0.1164,-0.30334 0.37151,-0.45272 0.56691,-0.33197 0.1954,0.12077 0.35527,0.0448 0.35527,-0.16877 0,-0.50449 1.3469,-1.95176 1.59009,-1.70858 0.10253,0.10253 -0.0464,0.63522 -0.331,1.18376 -0.90642,1.74711 0.0569,2.16338 1.47229,0.63617 0.4796,-0.5175 1.29155,-0.9726 1.80434,-1.01135 4.75508,-0.35929 6.79431,-0.67085 7.14333,-1.0914 0.22099,-0.26626 0.69985,-0.48411 1.06415,-0.48411 0.3643,0 0.66236,-0.15875 0.66236,-0.35278 0,-0.19403 0.23812,-0.35278 0.52916,-0.35278 0.29105,0 0.52917,0.29925 0.52917,0.66498 0,1.36395 -2.95051,2.49194 -7.23194,2.7648 -1.88712,0.12027 -2.72808,0.35363 -3.5662,0.98962 -0.74353,0.5642 -1.35779,0.76398 -1.90725,0.6203 -0.56233,-0.14706 -0.73322,-0.0869 -0.55812,0.1964 0.17053,0.27593 -0.10432,0.40835 -0.8476,0.40835 -0.60499,0 -1.02641,-0.11907 -0.93649,-0.26459 z M 95.680826,137.51339 c -0.259324,-0.67578 -0.261818,-0.67246 0.734621,-0.97836 0.865445,-0.26569 1.28223,0.16572 0.963231,0.99702 -0.281823,0.73442 -1.413644,0.72198 -1.697852,-0.0187 z m 3.453691,0.0614 c -0.262926,-0.68517 -0.0047,-0.99136 0.960423,-1.13864 0.5699,-0.087 0.69751,0.056 0.60827,0.68164 -0.13442,0.94233 -1.256965,1.26935 -1.568693,0.457 z m 19.499533,-0.45573 c -0.27958,-0.45236 0.64793,-1.43696 1.55718,-1.65305 0.47309,-0.11243 1.33641,-0.0631 1.91849,0.10952 0.87082,0.25832 0.94895,0.35959 0.44097,0.57155 -0.33955,0.14169 -0.61736,0.47875 -0.61736,0.74904 0,0.34627 -0.46274,0.49142 -1.56668,0.49142 -0.86167,0 -1.64134,-0.12081 -1.7326,-0.26848 z m -29.861831,-12.9364 c 0,-0.30111 -0.3175,-0.74576 -0.705555,-0.9881 -1.025336,-0.64033 -0.867391,-0.97647 0.458837,-0.97647 2.869854,0 4.258536,2.17147 1.536463,2.40255 -0.977455,0.083 -1.289745,-0.0231 -1.289745,-0.43798 z m 1.411111,-0.90623 c 0,-0.19403 -0.14938,-0.35278 -0.331956,-0.35278 -0.182577,0 -0.430072,0.15875 -0.549988,0.35278 -0.119916,0.19403 0.02946,0.35278 0.331957,0.35278 0.302493,0 0.549987,-0.15875 0.549987,-0.35278 z m 14.12394,0.89739 c -0.50729,-0.61124 -0.14168,-1.3751 0.53406,-1.1158 0.30596,0.11741 0.40557,1.9e-4 0.27935,-0.32873 -0.15609,-0.40675 0.18552,-0.5112 1.67198,-0.5112 h 1.86816 l -0.77664,0.72356 c -0.42716,0.39795 -0.95035,0.6162 -1.16265,0.48499 -0.25743,-0.1591 -0.30674,0.0112 -0.14805,0.51117 0.20586,0.6486 0.0978,0.74973 -0.80096,0.74973 -0.5714,0 -1.23076,-0.23117 -1.46525,-0.51372 z m -6.967175,-4.42903 c -0.26409,-1.00988 -1.737043,-1.28224 -2.976108,-0.55031 l -1.021147,0.60321 0.713303,-1.26997 c 0.392313,-0.69849 0.718262,-1.46358 0.72433,-1.70022 0.0061,-0.23663 0.401493,-1.22399 0.87872,-2.19413 0.477227,-0.97014 0.869139,-1.96232 0.870913,-2.20486 0.0018,-0.24253 0.122287,-0.4542 0.267808,-0.47037 0.145521,-0.0162 0.661459,-0.0763 1.146528,-0.13365 1.029169,-0.12167 2.116668,0.7045 2.116668,1.60802 0,0.34653 0.15875,0.72817 0.35278,0.84809 0.19402,0.11991 0.35782,0.56584 0.36399,0.99095 0.006,0.42512 0.23921,1.07413 0.51787,1.44227 0.27866,0.36813 0.4341,0.7867 0.34544,0.93017 -0.0887,0.14345 0.0752,0.457 0.36408,0.69677 0.57439,0.4767 0.71344,1.40789 0.21025,1.40789 -0.17327,0 -0.40641,-0.23812 -0.5181,-0.52917 -0.33444,-0.87155 -2.151614,-0.6509 -2.905352,0.35278 -0.801327,1.06706 -1.205491,1.11509 -1.451973,0.17253 z m -11.742876,-0.59601 c -0.679097,-0.30511 -1.556687,-0.69981 -1.9502,-0.8771 -1.286185,-0.57949 -2.490663,-4.49673 -2.339029,-7.60706 0.04977,-1.02095 0.169532,-1.14652 1.093409,-1.14652 0.570632,0 1.135626,0.15875 1.255542,0.35277 0.119916,0.19403 0.834291,0.35278 1.5875,0.35278 0.753209,0 1.467584,0.15875 1.5875,0.35278 0.119916,0.19403 0.514821,0.35278 0.877567,0.35278 0.362744,0 0.913426,0.25389 1.223737,0.5642 0.451157,0.45115 0.668253,0.47784 1.083532,0.13319 0.40556,-0.33658 0.519331,-1.37814 0.519331,-4.75434 0,-5.02556 0.129547,-5.25882 2.960617,-5.33083 2.751015,-0.07 2.988995,0.16677 3.10943,3.0932 0.125998,3.06158 0.719906,3.71925 2.295715,2.54214 0.918182,-0.68586 0.974916,-0.87662 0.862274,-2.89923 -0.139439,-2.50376 -0.10492,-2.53412 2.992656,-2.63178 l 2.06681,-0.0652 0.17639,4.99907 c 0.097,2.74949 0.2807,5.10276 0.40819,5.22949 0.12749,0.12672 0.71491,-0.0194 1.30539,-0.32477 0.59048,-0.30535 1.38962,-0.55518 1.77586,-0.55518 0.38624,0 0.79,-0.14198 0.89725,-0.31552 0.10725,-0.17353 0.7913,-0.40266 1.52012,-0.50918 0.72883,-0.10652 1.84107,-0.30006 2.47166,-0.43009 l 1.14653,-0.2364 v 2.6739 c 0,3.82151 -1.40966,6.53594 -3.41019,6.56666 -0.42039,0.006 -0.81851,0.17423 -0.88472,0.37283 -0.0662,0.1986 -0.71442,0.4575 -1.4405,0.57533 -1.02357,0.1661 -1.32015,0.0977 -1.32015,-0.30447 0,-0.55634 1.40605,-1.33751 2.40743,-1.33751 0.87934,0 2.88424,-1.94797 2.88424,-2.80233 0,-0.399 0.15875,-0.72545 0.35278,-0.72545 0.19403,0 0.35278,-0.71437 0.35278,-1.5875 0,-1.57391 -0.0104,-1.5875 -1.21391,-1.5875 -0.66764,0 -1.31201,0.15875 -1.43193,0.35278 -0.11991,0.19403 -0.75491,0.35278 -1.41111,0.35278 -0.65619,0 -1.29119,0.15875 -1.41111,0.35278 -0.11992,0.19403 -0.49088,0.35278 -0.82436,0.35278 -0.71489,0 -1.99766,1.35873 -1.99833,2.11666 -2.5e-4,0.29104 -0.23359,0.52917 -0.51852,0.52917 -0.43541,0 -0.51975,-0.98482 -0.5287,-6.17361 -0.0117,-6.82041 -0.0486,-6.92449 -2.29408,-6.4754 -1.03055,0.20611 -1.04067,0.2318 -1.14205,2.9007 l -0.10229,2.69275 -2.383837,0.10437 c -2.28666,0.10012 -2.398106,0.0668 -2.734028,-0.81671 -0.192606,-0.5066 -0.350195,-1.61379 -0.350195,-2.46042 0,-1.67354 -0.662489,-2.64807 -1.800158,-2.64807 -0.380288,0 -0.773579,0.21408 -0.873983,0.47573 -0.100404,0.26164 -0.214485,3.14303 -0.253513,6.40308 -0.07004,5.85105 -0.08118,5.92891 -0.864708,6.04845 -0.631405,0.0963 -0.79375,-0.0477 -0.79375,-0.70396 0,-0.93506 -0.997775,-1.99274 -1.879861,-1.99274 -0.32427,0 -0.589583,-0.15875 -0.589583,-0.35278 0,-0.19403 -0.625631,-0.35278 -1.390292,-0.35278 -0.76466,0 -1.488404,-0.15875 -1.60832,-0.35278 -0.119916,-0.19403 -0.707525,-0.35278 -1.305797,-0.35278 h -1.087769 l 0.227218,2.17391 c 0.193258,1.84899 0.393872,2.32269 1.342248,3.1694 0.613267,0.54753 1.446446,1.09157 1.85151,1.20898 1.307478,0.37899 2.676757,1.0221 2.676757,1.2572 0,0.27299 -0.94737,0.66641 -1.528158,0.63462 -0.226666,-0.0124 -0.967745,-0.2722 -1.646842,-0.57731 z"
       id="path847"
       sodipodi:nodetypes="sccssssssssssssssssssssssssssssssssssssssssssssssssssssscssssssssssscssssssssscssssssssssssssscsssscscssssssssssscssscsssssssssssssssssscssssscssssssscssssscsssssssscsssssssssssssssssssssssssssssscssssssssssssssssssssssssssssssscscscsssscccsssssssssssscsssscsssssssssssscsssssssssscsssssssssssssssscccssccsssssscsssssssssssssssssscssssssscscsscssscsccsssscssssssssssssssccssssssscscsssssssssssssscsscsssssscsssssscssssscc"
       inkscape:label="Basislogo"
       sodipodi:insensitive="true" />
    <text
       xml:space="preserve"
       style="font-style:normal;font-weight:normal;font-size:15.875px;line-height:1.25;font-family:sans-serif;fill:#000000;fill-opacity:1;stroke:none;stroke-width:0.264583"
       x="63.637306"
       y="191.78223"
       id="text851"
       sodipodi:insensitive="true"><tspan
         sodipodi:role="line"
         id="tspan849"
         x="63.637306"
         y="191.78223"
         style="font-size:15.875px;stroke-width:0.264583">BLIJDORP</tspan><tspan
         sodipodi:role="line"
         x="63.637306"
         y="211.62598"
         style="font-size:10.5833px;stroke-width:0.264583"
         id="tspan855">EXTRA</tspan></text>
  </g>
</svg>
